<?xml version="1.0" encoding="utf-8" standalone="yes"?>
<!DOCTYPE svg PUBLIC "-//W3C//DTD SVG 1.1//EN" "http://www.w3.org/Graphics/SVG/1.1/DTD/svg11.dtd">
<svg xmlns="http://www.w3.org/2000/svg" xmlns:xlink="http://www.w3.org/1999/xlink" xmlns:dc="http://purl.org/dc/elements/1.1/" xmlns:cc="http://web.resource.org/cc/" xmlns:rdf="http://www.w3.org/1999/02/22-rdf-syntax-ns#" xmlns:sodipodi="http://sodipodi.sourceforge.net/DTD/sodipodi-0.dtd" xmlns:inkscape="http://www.inkscape.org/namespaces/inkscape" height="300px" style="zoom: 1;" cursor="crosshair" id="svg_document" width="300px" baseProfile="full" version="1.1" preserveAspectRatio="xMidYMid meet" viewBox="0 0 300 300"><title id="svg_document_title">Untitled.svg</title><defs id="svg_document_defs"></defs><g id="main_group"><text id="sample_text_element" style="outline-style:none;" xml:space="preserve" x="150px" text-rendering="geometricPrecision" font-family="Helvetica" y="150px" fill="black" font-size="30px" transform="" text-anchor="middle"></text></g><polyline points="121,139 121,38 229,49 229,140 " stroke="#000000" id="polyline3" stroke-width="3px" fill="none" transform=""></polyline><polyline points="112,40" stroke="#000000" id="polyline4" stroke-width="3px" fill="none" transform=""></polyline><polyline points="120,39 56,69 58,140 " stroke="#000000" id="polyline5" stroke-width="3px" fill="none" transform=""></polyline><line stroke="#000000" y1="139px" id="line6" x1="58px" stroke-width="3px" y2="139px" x2="58px" transform=""></line><line stroke="#000000" y1="141px" id="line7" x1="56px" stroke-width="3px" y2="141px" x2="231px" transform=""></line><line stroke="#000000" y1="39px" id="line2" x1="121px" stroke-width="3px" y2="39px" x2="121px" transform=""></line><line stroke="#000000" y1="39px" id="line4" x1="120px" stroke-width="3px" y2="39px" x2="120px" transform=""></line><line stroke="#000000" y1="38px" id="line5" x1="119px" stroke-width="3px" y2="38px" x2="119px" transform=""></line><polyline points="227,87 220,105 211,87 204,105 196,88 188,105 180,88 172,103 165,88 157,102 150,88 144,104 137,88 130,104 124,88 117,106 " stroke="#000000" stroke-width="3px" id="polyline2" fill="none" transform=""></polyline><polyline points="116,104 108,89 102,111 93,93 81,117 " stroke="#000000" id="polyline6" stroke-width="3px" fill="none" transform=""></polyline><path stroke="#000000" stroke-width="3px" id="path6" d="M175,72 C200,45 200,45 200,45 " fill="none" transform=""></path><path stroke="#000000" id="path5" stroke-width="3px" d="M162,72 C137,45 137,45 137,45 " fill="none" transform=""></path><path stroke="#000000" stroke-width="3px" id="path4" d="M158,77 C129,60 130,32 129,59 C128,86 154,76 154,76 " fill="none" transform=""></path><path stroke="#000000" id="path3" stroke-width="3px" d="M179,78 C208,61 207,33 208,60 C209,87 183,77 183,77 " fill="none" transform=""></path><polyline points="227,117 220,135 211,117 204,135 196,118 188,135 180,118 172,133 165,118 157,132 150,118 144,134 137,118 130,134 124,118 114,137 " stroke="#000000" id="polyline1" stroke-width="3px" fill="none" transform=""></polyline><path stroke="#000000" id="path2" stroke-width="3px" d="M138,42 C138,42 138,42 138,42 " fill="none" transform=""></path><line stroke="#000000" y1="57px" id="line1" x1="193px" stroke-width="3px" y2="57px" x2="193px" transform=""></line><line stroke="#000000" y1="48px" id="line3" x1="209px" stroke-width="3px" y2="48px" x2="209px" transform=""></line><polyline points="113,137 108,120 102,138 94,117 82,139 81,116 " stroke="#000000" id="polyline7" stroke-width="3px" fill="none" transform=""></polyline></svg>