<svg xmlns="http://www.w3.org/2000/svg" xmlns:xlink="http://www.w3.org/1999/xlink" xmlns:dc="http://purl.org/dc/elements/1.1/" xmlns:cc="http://web.resource.org/cc/" xmlns:rdf="http://www.w3.org/1999/02/22-rdf-syntax-ns#" xmlns:sodipodi="http://sodipodi.sourceforge.net/DTD/sodipodi-0.dtd" xmlns:inkscape="http://www.inkscape.org/namespaces/inkscape" height="100px" style="zoom: 1;" cursor="default" id="svg_document" width="200px" baseProfile="full" version="1.1" preserveAspectRatio="xMidYMid meet" viewBox="100 33 110 120" macsvgid="1C5EFEB8-4192-4527-9471-70CE5764CD69-21947-0000145652451969"><title id="svg_document_title" macsvgid="D0AEBFA5-DF82-463A-8162-9AF87F29BB54-21947-0000145652454CFD">Untitled.svg</title><defs id="svg_document_defs" macsvgid="8D918C54-D0B5-4401-91CC-F9AEBB2C101D-21947-0000145652456963"/><g id="main_group" macsvgid="64BBAD8B-27D1-423A-9368-D78B4776F078-21947-00001456524588C3"><text id="sample_text_element" style="outline-style:none;" xml:space="preserve" x="150px" text-rendering="geometricPrecision" font-family="Helvetica" y="150px" fill="black" font-size="30px" transform="" text-anchor="middle" macsvgid="FA15CE47-39FA-48BD-8AA0-56997892763D-21947-000014565245A080"/></g><polyline points="121,139 121,38 229,49 229,140" stroke="#000000" id="polyline3" stroke-width="3px" fill="none" transform="" macsvgid="2CB066BE-BD43-4CEB-AEDF-B4DBF632F41D-21947-000014565245BA02"/><polyline points="112,40" stroke="#000000" id="polyline4" stroke-width="3px" fill="#E7BB41" transform="" macsvgid="0B209D03-3E63-4F61-8C9E-D2C43EDA30BC-21947-000014565245CE8C"/><polyline points="120,39 56,69 58,140" stroke="#000000" id="polyline5" stroke-width="3px" fill="none" transform="" macsvgid="902E4059-F616-48B7-A34E-7D144D4CFD33-21947-000014565245E172"/><line stroke="#000000" y1="139px" id="line6" x1="58px" stroke-width="3px" y2="139px" x2="58px" transform="" fill="#E7BB41" macsvgid="18EAB580-0768-4277-80C5-B14782311AA5-21947-000014565245F43E"/><line stroke="#000000" y1="141px" id="line7" x1="56px" stroke-width="3px" y2="141px" x2="231px" transform="" fill="#E7BB41" macsvgid="26671883-5E0A-4EA1-8396-1060EF143A55-21947-0000145652460EC8"/><line stroke="#000000" y1="39px" id="line2" x1="121px" stroke-width="3px" y2="39px" x2="121px" transform="" ill="#E7BB41" macsvgid="719252C0-068F-41DA-A347-0BA4B02CCFFC-21947-0000145652462262"/><line stroke="#000000" y1="39px" id="line4" x1="120px" stroke-width="3px" y2="39px" x2="120px" transform="" fill="#E7BB41" macsvgid="2DE35156-59A8-4C33-AE1D-359695BCBF8F-21947-00001456524635B8"/><line stroke="#000000" y1="38px" id="line5" x1="119px" stroke-width="3px" y2="38px" x2="119px" transform="" fill="#E7BB41" macsvgid="D8BFCF0A-CDAB-4DCD-8512-457AF6B76E59-21947-00001456524649EA"/><polyline points="227,87 220,105 211,87 204,105 196,88 188,105 180,88 172,103 165,88 157,102 150,88 144,104 137,88 130,104 124,88 117,106" stroke="#000000" stroke-width="3px" id="polyline2" fill="none" transform="" macsvgid="DE98E979-857C-42BA-AA95-CFE6C0DD43FF-21947-0000145652465DB3"/><polyline points="116,104 108,89 102,111 93,93 81,117" stroke="#000000" id="polyline6" stroke-width="3px" fill="none" transform="" macsvgid="26CE148C-BB36-4008-9CD1-9573AFBCE800-21947-0000145652467196"/><path stroke="#000000" stroke-width="3px" id="path6" d="M170,75 C195,48 195,48 195,48" fill="#E7BB41" transform="" macsvgid="DB935A98-086A-48F7-B848-D87C49526E27-21947-0000145652468824"/><path stroke="#000000" id="path5" stroke-width="3px" d="M162,73 C137,46 137,46 137,46" fill="#E7BB41" transform="" macsvgid="9B080696-6E84-42D5-B346-87D9E7416021-21947-0000145652469C2A"/><path stroke="#000000" stroke-width="3px" id="path4" d="M158,77 C129,60 130,32 129,59 C128,86 154,76 154,76" fill="white" transform="" macsvgid="1B46E8D7-9538-48D9-B8FC-056D2D90BCD4-21947-000014565246AFD2"/><path stroke="#000000" id="path3" stroke-width="3px" d="M179,78 C208,61 207,33 208,60 C209,87 183,77 183,77" fill="white" transform="" macsvgid="69FA8CCA-66CF-449B-9FB9-7C1C508C6FEF-21947-000014565246C2EA"/><polyline points="227,117 220,135 211,117 204,135 196,118 188,135 180,118 172,133 165,118 157,132 150,118 144,134 137,118 130,134 124,118 114,137" stroke="#000000" id="polyline1" stroke-width="3px" fill="none" transform="" macsvgid="6EEB30FB-0269-48EC-850A-25B27A96DD1D-21947-000014565246D582"/><path stroke="#000000" id="path2" stroke-width="3px" d="M138,42 C138,42 138,42 138,42" fill="none" transform="" macsvgid="0CE1B5DE-8DE1-4F83-ADA4-C4F2825364ED-21947-000014565246E81E"/><line stroke="#000000" y1="57px" id="line1" x1="193px" stroke-width="3px" y2="57px" x2="193px" transform="" macsvgid="380B137D-2DA9-4701-BC27-CD976946FF54-21947-000014565246FEB8"/><line stroke="#000000" y1="48px" id="line3" x1="209px" stroke-width="3px" y2="48px" x2="209px" transform="" macsvgid="0B0F3378-A182-44D3-866D-81257687B6B3-21947-000014565247147F"/><polyline points="113,137 108,120 102,138 94,117 82,139 81,116" stroke="#000000" id="polyline7" stroke-width="3px" fill="none" transform="" macsvgid="FEF60252-F265-4DBE-B423-390334FD17B4-21947-000014565247283D"/><g id="_macsvg_top_group" class="_macsvg_top_group"><g id="_macsvg_selectedRectsGroup" class="_macsvg_selectedRectsGroup"/><g id="_macsvg_selectionHandlesGroup" class="_macsvg_selectionHandlesGroup" key_Macsvgid=""><g id="_macsvg_path_transform_intermediate" class="_macsvg_path_transform_intermediate" transform=""/></g></g></svg>
